<svg xmlns="http://www.w3.org/2000/svg" xmlns:xlink="http://www.w3.org/1999/xlink" xmlns:fi="http://pattern.flaticon.com/" x="0" y="0" width="2160" height="1080" viewBox="0 0 2160 1080"><rect x="0px" y="0px" width="100%" height="100%" opacity="1" fill="#f4f6fa"/><defs><g transform="matrix(0.061487546141323006 0.01152891527139694 -0.01152891527139694 0.061487546141323006 119.80761299281721 72.56497217294313)" id="L1_1"><path d="M277.2,90.8c-2.4-2.4-6.4-3.2-9.6-1.2l-113.2,61.6c-1.2,0.8-2.4,2-3.2,3.2l-62,113.2c-1.6,3.2-1.2,6.8,1.2,9.6     c1.6,1.6,3.6,2.4,5.6,2.4c1.2,0,2.8-0.4,4-0.8l113.2-62c1.2-0.8,2.4-2,3.2-3.2l62-113.2C280.4,97.2,279.6,93.2,277.2,90.8z      M116.4,251.2l44-79.6l36,36L116.4,251.2z M207.6,196.4l-36-36l80-43.6L207.6,196.4z"/><path d="M184,0C82.4,0,0,82.4,0,184s82.4,184,184,184s184-82.4,184-184S285.6,0,184,0z M184,352c-92.8,0-168-75.2-168-168     S91.2,16,184,16s168,75.2,168,168S276.8,352,184,352z"/><path d="M184,60c4.4,0,8-3.6,8-8v-4c0-4.4-3.6-8-8-8c-4.4,0-8,3.6-8,8v4C176,56.4,179.6,60,184,60z"/><path d="M184,308c-4.4,0-8,3.6-8,8v4c0,4.4,3.6,8,8,8c4.4,0,8-3.6,8-8v-4C192,311.6,188.4,308,184,308z"/><path d="M320,176h-4c-4.4,0-8,3.6-8,8c0,4.4,3.6,8,8,8h4c4.4,0,8-3.6,8-8C328,179.6,324.4,176,320,176z"/><path d="M52,176h-4c-4.4,0-8,3.6-8,8c0,4.4,3.6,8,8,8h4c4.4,0,8-3.6,8-8C60,179.6,56.4,176,52,176z"/><path d="M282.8,271.6c-3.2-3.2-8-3.2-11.2,0s-3.2,8,0,11.2l2.8,2.8c1.6,1.6,3.6,2.4,5.6,2.4s4-0.8,5.6-2.4c3.2-3.2,3.2-8,0-11.2     L282.8,271.6z"/><path d="M96.4,96.4c3.2-3.2,3.2-8,0-11.2l-2.8-2.8c-3.2-3.2-8-3.2-11.2,0c-3.2,3.2-3.2,8,0,11.2l2.8,2.8c1.6,1.6,3.6,2.4,5.6,2.4     S94.8,98,96.4,96.4z"/></g><path d="M332.927,342.168c62.5-30.5,101.3-92.5,101.3-161.9c0-102.7-86.3-185.6-190.2-180c-92.6,5-167.3,81.5-170.2,174.2    c-2.2,70.8,37.6,136.6,101.3,167.7c8.1,3.9,13.3,12.5,13.3,21.8v12.9c-13.6,0-24.6,11-24.6,24.6c0,11.3,7.7,20.8,18.2,23.6    c-1.1,2.8-1.8,5.9-1.8,9.1c0,10.7,6.9,19.7,16.4,23.1v9.7c0,22.6,18.4,41,41,41h32.8c22.6,0,41-18.4,41-41v-9.7    c9.5-3.4,16.4-12.4,16.4-23.1c0-3.2-0.7-6.3-1.8-9.1c10.4-2.8,18.2-12.3,18.2-23.6c0-13.6-11-24.6-24.6-24.6v-12.8    C319.527,354.768,324.827,346.168,332.927,342.168z M295.027,467.068c0,13.6-11,24.6-24.6,24.6h-32.8c-13.6,0-24.6-11-24.6-24.6    v-8.2h82V467.068z M303.227,442.568h-98.3c-4.5,0-8.2-3.7-8.2-8.2s3.7-8.2,8.2-8.2h98.3c4.5,0,8.2,3.7,8.2,8.2    S307.727,442.568,303.227,442.568z M327.727,401.568c0,4.5-3.7,8.2-8.2,8.2h-131c-4.5,0-8.2-3.7-8.2-8.2s3.7-8.2,8.2-8.2h131.1    C324.127,393.368,327.727,397.068,327.727,401.568z M303.227,364.068v12.9h-41v-99.5c14.1-3.7,24.6-16.4,24.6-31.6    c0-18.1-14.7-32.8-32.8-32.8s-32.8,14.7-32.8,32.8c0,15.2,10.5,27.9,24.6,31.6v99.5h-41v-12.9c0-15.5-8.8-29.9-22.5-36.5    c-58-28.2-94.1-88.1-92.1-152.4c2.6-84.3,70.6-153.9,154.7-158.4c94.2-5.1,172.9,70.3,172.9,163.6c0,63-35.3,119.4-92.1,147.2    C312.027,334.168,303.227,348.568,303.227,364.068z M254.027,262.268c-9,0-16.4-7.3-16.4-16.4c0-9.1,7.4-16.4,16.4-16.4    s16.4,7.3,16.4,16.4C270.427,254.968,263.027,262.268,254.027,262.268z" transform="matrix(0.057844310998916626 0 0 0.057844310998916626 283.24476095759064 71.27929782122374)" id="L1_2"/><g transform="matrix(0.06432814025792698 -0.008390626941401334 0.008390626941401334 0.06432814025792698 111.38399559697196 236.67999659096944)" id="L1_3"><path d="M498.773,181.76l-25.493-14.72c1.813-11.733,1.813-23.68,0-35.413l25.493-14.72c5.12-2.987,6.827-9.493,3.947-14.613     l-32-55.467c-2.987-5.12-9.493-6.827-14.613-3.947L456,42.987L431.68,57.6c-7.573-5.76-17.173-11.413-28.373-17.067V10.667     C402.667,4.8,397.867,0,392,0h-64.533C321.6,0,316.8,4.8,316.8,10.667V39.36c-14.827,4.48-23.573,10.88-32.107,18.453     l-26.027-14.72c-5.12-2.88-11.52-1.173-14.507,3.947l-32.32,55.467c-2.987,5.12-1.28,11.627,3.84,14.613l25.28,14.72     c-1.813,11.733-1.92,23.68-0.107,35.413l-25.387,14.507c-5.013,2.987-6.827,9.387-3.947,14.507l32,55.467     c1.813,3.093,5.12,5.013,8.64,5.12l-23.787,14.293c-7.573-5.76-17.173-11.413-29.013-17.067V224     c0-5.867-4.8-10.667-10.667-10.667H125.12c-5.867,0-10.667,4.8-11.093,10.667v28.693c-14.4,4.48-23.147,10.88-31.68,18.453     l-26.027-14.72c-5.12-2.88-11.52-1.173-14.507,3.947l-32.107,55.36c-2.987,5.12-1.28,11.627,3.84,14.613l25.28,14.72     c-1.813,11.733-1.92,23.68-0.107,35.413l-25.493,14.613C8.107,398.08,6.4,404.587,9.28,409.6l32,55.467     c2.88,5.013,9.28,6.827,14.4,4.053l26.667-14.827c8.427,7.467,17.173,13.867,32.747,18.453v28.587     C114.453,507.2,119.253,512,125.12,512h63.68c5.867,0,10.667-4.8,10.667-10.667v-30.08c11.84-5.653,21.44-11.2,29.12-17.067     l24.32,14.613c5.013,2.987,11.627,1.387,14.613-3.627c0,0,0-0.107,0.107-0.107l32-55.467c2.987-5.12,1.173-11.627-3.947-14.613     l-25.493-14.72c1.813-11.733,1.813-23.68,0-35.413l25.493-14.72c5.12-2.987,6.827-9.493,3.947-14.507l-32-55.467     c-1.6-3.307-5.013-5.333-8.64-5.12l25.707-14.293c8.427,7.467,17.173,13.867,32.107,18.453V288c0,5.867,4.8,10.667,10.667,10.667     h64.427c5.867,0,10.667-4.8,10.24-10.667v-30.08c12.267-5.653,21.867-11.2,29.547-17.067L456,255.467     c5.013,3.093,11.627,1.387,14.613-3.627c0,0,0-0.107,0.107-0.107l32-55.467C505.6,191.147,503.787,184.64,498.773,181.76z      M276.16,317.12l-22.72,13.12c-4.053,2.347-6.08,7.04-5.12,11.52c3.093,13.76,3.093,27.947,0,41.707     c-0.96,4.587,1.067,9.173,5.12,11.52l22.72,13.12l-21.227,36.907l-21.44-12.907c-4.053-2.453-9.173-1.92-12.693,1.28     c-7.68,7.04-19.733,14.187-35.84,21.333c-3.84,1.707-6.293,5.547-5.653,9.707v26.24h-43.733v-26.24     c0.427-5.013-3.093-9.28-8-10.453c-18.24-4.053-25.28-10.453-36.373-20.693c-3.413-3.093-8.32-3.733-12.373-1.493l-24.107,13.44     l-21.44-37.12l22.827-13.12c4.053-2.347,6.08-7.04,5.12-11.52c-3.093-13.76-3.093-27.947,0.107-41.707     c0.96-4.587-1.067-9.173-5.12-11.52L33.6,317.12L55.253,280l23.573,13.333c4.16,2.133,9.28,1.493,12.8-1.707     c10.667-9.813,17.707-16.32,36.053-20.373c4.907-1.067,8.32-5.44,9.067-10.453v-26.133h41.6v26.24c0.427,4.267,2.88,8,6.72,9.707     c16.107,7.147,28.16,14.293,35.84,21.333c3.52,3.2,8.64,3.733,12.693,1.28l21.547-12.907L276.16,317.12z M457.6,231.68     l-21.44-12.907c-4.053-2.453-9.173-1.92-12.693,1.28c-7.68,7.04-19.733,14.187-35.84,21.333c-3.84,1.707-6.293,5.547-5.653,9.707     v26.24H338.24v-26.24c0.427-5.013-3.093-9.28-8-10.453c-18.24-4.053-25.28-10.453-36.373-20.693     c-3.413-3.093-8.32-3.733-12.373-1.493l-24.107,13.44l-21.44-37.12l22.827-13.12c4.053-2.347,6.08-7.04,5.12-11.52     c-3.093-13.76-3.093-27.947,0.107-41.707c0.96-4.587-1.067-9.173-5.12-11.52l-22.613-13.12l21.653-37.12L281.493,80     c4.16,2.133,9.28,1.493,12.8-1.707C304.96,68.48,312,61.973,330.347,57.92c4.907-1.067,8.32-5.44,9.067-10.453V21.333h41.6v26.24     c0.427,4.267,2.88,8,6.72,9.707c16.107,7.147,28.267,14.4,35.84,21.333c3.52,3.2,8.64,3.733,12.693,1.28L457.6,66.987     l21.227,36.8L456,116.907c-4.053,2.347-6.08,7.04-5.12,11.52c3.093,13.76,3.093,27.947,0,41.707     c-0.96,4.587,1.067,9.173,5.12,11.52l22.72,13.12L457.6,231.68z"/><path d="M357.333,96C327.893,96,304,119.893,304,149.333c0,29.44,23.893,53.333,53.333,53.333s53.333-23.893,53.333-53.333     C410.667,119.893,386.773,96,357.333,96z M357.333,181.333c-17.707,0-32-14.293-32-32c0-17.707,14.293-32,32-32     c17.707,0,32,14.293,32,32C389.333,167.04,375.04,181.333,357.333,181.333z"/><path d="M154.667,309.333c-29.44,0-53.333,23.893-53.333,53.333S125.227,416,154.667,416S208,392.107,208,362.667     S184.107,309.333,154.667,309.333z M154.667,394.667c-17.707,0-32-14.293-32-32s14.293-32,32-32s32,14.293,32,32     S172.373,394.667,154.667,394.667z"/></g><g transform="matrix(0.05975681029483442 -0.011951362313560936 0.011951362313560936 0.05975681029483442 189.8138069897848 -7.501702589574325)" id="L1_4"><path d="M462.467,35.67l-15.421-18.778c-16.292-19.757-45.604-22.596-65.335-6.33l-185.56,152.765     c-2.587-0.243-5.196-0.374-7.825-0.374c-19.114,0-37.78,6.705-52.556,18.876c-16.253,13.372-50.508,52.321-77.511,91.926     C21.73,327.332,11.052,361.984,25.62,379.698c5.953,7.224,15.626,10.886,28.75,10.886c53.566,0,161.308-60.185,186.597-81.012     c17.057-14.042,27.621-33.886,29.751-55.877L456.15,101.011c9.579-7.879,15.511-19.02,16.702-31.369     C474.043,57.292,470.35,45.221,462.467,35.67z M250.815,251.752c-1.611,16.681-9.622,31.732-22.56,42.383     c-26.168,21.55-128.775,76.451-173.884,76.451c-0.232,0-0.456-0.005-0.684-0.008l146.699-121.887     c4.248-3.529,4.83-9.834,1.301-14.082c-3.529-4.248-9.835-4.832-14.082-1.301L39.597,356.283     c1.555-12.251,10.282-34.731,35.188-71.26c25.188-36.942,58.439-75.197,73.698-87.752c11.207-9.232,25.357-14.316,39.844-14.316     c18.839,0,36.496,8.333,48.453,22.872C247.441,218.76,252.425,235.07,250.815,251.752z M269.402,228.875     c-2.686-12.997-8.503-25.231-17.183-35.761c-8.686-10.563-19.661-18.636-31.919-23.762l25.768-21.213l48.145,60.306     L269.402,228.875z M452.945,67.721c-0.679,7.025-4.052,13.363-9.504,17.847L309.654,195.731l-48.145-60.304L394.428,26     c11.228-9.256,27.91-7.634,37.174,3.602l15.425,18.782C451.521,53.827,453.623,60.695,452.945,67.721z"/><path d="M337.483,389.67c-28.773-21.629-76.244-17.411-141.092,12.536c-86.442,39.917-128.298,34.824-148.19,23.523     c-19.021-10.807-21.235-29.153-21.335-30.082c-0.52-5.466-5.361-9.5-10.832-9.013c-5.501,0.484-9.568,5.336-9.085,10.838     c0.105,1.182,2.87,29.132,30.865,45.355c34.817,20.177,90.992,12.619,166.961-22.464c56.78-26.22,98.493-31.323,120.625-14.754     c25.498,19.087,19.404,62.449,19.342,62.866c-0.83,5.46,2.923,10.56,8.383,11.391c0.51,0.078,1.016,0.115,1.517,0.115     c4.858,0,9.12-3.547,9.873-8.497C364.859,469.231,372.509,416.001,337.483,389.67z"/></g><g transform="matrix(0.04971844702959061 0 0 0.04971844702959061 203.2720775604248 155.2720775604248)" id="L1_6"><path d="M508.885,88.448L423.552,3.115C421.547,1.131,418.837,0,416,0H32C14.357,0,0,14.357,0,32v448c0,17.643,14.357,32,32,32    h448c17.643,0,32-14.357,32-32V96C512,93.163,510.869,90.453,508.885,88.448z M490.667,480c0,5.888-4.8,10.667-10.667,10.667H32    c-5.867,0-10.667-4.779-10.667-10.667V32c0-5.888,4.8-10.667,10.667-10.667h379.584l79.083,79.083V480z"/><path d="M373.333,0H138.667C132.779,0,128,4.779,128,10.667v128c0,17.643,14.357,32,32,32h192c17.643,0,32-14.357,32-32v-128    C384,4.779,379.221,0,373.333,0z M362.667,138.667c0,5.888-4.8,10.667-10.667,10.667H160c-5.867,0-10.667-4.779-10.667-10.667    V21.333h213.333V138.667z"/><path d="M394.667,192H117.333C87.915,192,64,215.936,64,245.333v256C64,507.221,68.779,512,74.667,512h362.667    c5.888,0,10.667-4.779,10.667-10.667v-256C448,215.936,424.085,192,394.667,192z M426.667,490.667H85.333V245.333    c0-17.643,14.357-32,32-32h277.333c17.643,0,32,14.357,32,32V490.667z"/><path d="M330.667,42.667H288c-5.888,0-10.667,4.779-10.667,10.667v64c0,5.888,4.779,10.667,10.667,10.667h42.667    c5.888,0,10.667-4.779,10.667-10.667v-64C341.333,47.445,336.555,42.667,330.667,42.667z M320,106.667h-21.333V64H320V106.667z"/><path d="M373.333,277.333H138.667c-5.888,0-10.667,4.779-10.667,10.667s4.779,10.667,10.667,10.667h234.667    c5.888,0,10.667-4.779,10.667-10.667S379.221,277.333,373.333,277.333z"/><path d="M373.333,341.333H138.667c-5.888,0-10.667,4.779-10.667,10.667c0,5.888,4.779,10.667,10.667,10.667h234.667    c5.888,0,10.667-4.779,10.667-10.667C384,346.112,379.221,341.333,373.333,341.333z"/><path d="M373.333,405.333H138.667c-5.888,0-10.667,4.779-10.667,10.667c0,5.888,4.779,10.667,10.667,10.667h234.667    c5.888,0,10.667-4.779,10.667-10.667C384,410.112,379.221,405.333,373.333,405.333z"/></g><g transform="matrix(0.060770194977521896 0 0 0.060770194977521896 22.438024087162717 153.43650341033936)" id="L1_7"><path d="M486.454,34.133H280.081c1.012-2.733,1.544-5.62,1.573-8.533c0-14.138-11.462-25.6-25.6-25.6s-25.6,11.461-25.6,25.6     c0.029,2.914,0.561,5.801,1.573,8.533H25.654c-14.132,0.015-25.585,11.468-25.6,25.6v8.533c0.015,14.132,11.468,25.585,25.6,25.6     V332.8c0.039,32.974,26.76,59.695,59.733,59.733h162.133v69.839c-11.755,4.156-18.806,16.176-16.698,28.465     s12.763,21.271,25.231,21.271s23.123-8.982,25.231-21.271c2.108-12.289-4.943-24.309-16.698-28.465v-69.839h162.133     c32.974-0.038,59.695-26.759,59.733-59.733V93.867c14.132-0.015,25.585-11.468,25.6-25.6v-8.533     C512.039,45.601,500.586,34.149,486.454,34.133z M256.054,17.067c4.713,0,8.533,3.82,8.533,8.533s-3.82,8.533-8.533,8.533     c-4.711-0.005-8.529-3.823-8.533-8.533C247.521,20.887,251.341,17.067,256.054,17.067z M256.054,494.933     c-4.713,0-8.533-3.82-8.533-8.533s3.82-8.533,8.533-8.533s8.533,3.82,8.533,8.533     C264.583,491.111,260.765,494.929,256.054,494.933z M469.388,332.8c-0.028,23.553-19.114,42.639-42.667,42.667H85.387     c-23.553-0.028-42.639-19.114-42.667-42.667V93.867h426.667V332.8z M494.988,68.267c-0.005,4.711-3.822,8.529-8.533,8.533h-460.8     c-4.711-0.005-8.529-3.822-8.533-8.533v-8.533c0.005-4.711,3.822-8.529,8.533-8.533h460.8c4.711,0.005,8.529,3.822,8.533,8.533     V68.267z"/><path d="M102.454,349.867c18.843-0.02,34.113-15.29,34.133-34.133c-0.024-7.365-2.453-14.521-6.917-20.38l31.638-39.533     c1.798,0.318,3.65,0.045,5.279-0.779l38.266-19.829l38.267,19.829c1.581,0.942,3.473,1.212,5.254,0.748l31.663,39.563     c-4.464,5.859-6.892,13.015-6.917,20.38c-0.055,14.582,9.159,27.589,22.934,32.373s29.068,0.289,38.064-11.188     c8.995-11.477,9.706-27.401,1.77-39.634l57.718-62.516c4.919,2.702,10.435,4.134,16.048,4.165     c15.781,0.141,29.639-10.461,33.631-25.729c3.992-15.268-2.903-31.297-16.733-38.898c-13.83-7.601-31.057-4.831-41.807,6.724     c-10.75,11.554-12.271,28.936-3.693,42.183l-57.767,62.571c-9.232-5.146-20.368-5.569-29.965-1.14l-39.796-49.726l-5.354-30.756     l30.858-29.65c2.356-2.258,3.217-5.663,2.217-8.77s-3.686-5.37-6.917-5.83l-42.75-6.125l-19.092-38.142     c-1.605-2.687-4.504-4.332-7.633-4.332s-6.028,1.645-7.633,4.332l-19.092,38.142l-42.75,6.125     c-3.231,0.46-5.917,2.723-6.917,5.83s-0.139,6.512,2.217,8.77l30.858,29.65l-5.354,30.756l-39.796,49.726     c-4.375-1.994-9.125-3.031-13.933-3.044c-18.851,0-34.133,15.282-34.133,34.133S83.603,349.867,102.454,349.867z      M409.654,187.733c9.426,0,17.067,7.641,17.067,17.067c0,9.426-7.641,17.067-17.067,17.067     c-9.397-0.068-16.999-7.669-17.067-17.067C392.598,195.379,400.233,187.744,409.654,187.733z M307.254,298.667     c9.421,0.011,17.056,7.645,17.067,17.067c0,9.426-7.641,17.067-17.067,17.067s-17.067-7.641-17.067-17.067     S297.829,298.667,307.254,298.667z M155.113,174.325l29.858-4.279c2.77-0.396,5.17-2.124,6.425-4.625l13.458-26.892     l13.458,26.892c1.255,2.501,3.655,4.229,6.425,4.625l29.858,4.279L233.079,195c-2.048,1.965-2.985,4.82-2.5,7.617l5.108,29.354     l-26.908-13.946c-2.461-1.278-5.389-1.278-7.85,0l-26.908,13.946l5.108-29.354c0.485-2.797-0.452-5.651-2.5-7.617     L155.113,174.325z M102.454,298.667c9.426,0,17.067,7.641,17.067,17.067S111.88,332.8,102.454,332.8s-17.067-7.641-17.067-17.067     C85.398,306.312,93.033,298.677,102.454,298.667z"/><path d="M349.921,128h34.133c4.713,0,8.533-3.82,8.533-8.533s-3.82-8.533-8.533-8.533h-34.133c-4.713,0-8.533,3.82-8.533,8.533     S345.208,128,349.921,128z"/><path d="M418.188,128h25.6c4.713,0,8.533-3.82,8.533-8.533s-3.82-8.533-8.533-8.533h-25.6c-4.713,0-8.533,3.82-8.533,8.533     S413.475,128,418.188,128z"/><path d="M324.321,162.133h25.6c4.713,0,8.533-3.821,8.533-8.533c0-4.713-3.82-8.533-8.533-8.533h-25.6     c-4.713,0-8.533,3.821-8.533,8.533C315.788,158.313,319.608,162.133,324.321,162.133z"/><path d="M378.02,147.565c-1.6,1.6-2.499,3.771-2.499,6.035c-0.001,2.263,0.898,4.434,2.499,6.035     c1.6,1.6,3.771,2.499,6.035,2.499h17.067c4.713,0,8.533-3.821,8.533-8.533c0-4.713-3.82-8.533-8.533-8.533h-17.067     C381.791,145.066,379.62,145.965,378.02,147.565z"/><path d="M443.788,145.067h-8.533c-4.713,0-8.533,3.821-8.533,8.533c0,4.713,3.82,8.533,8.533,8.533h8.533     c4.713,0,8.533-3.821,8.533-8.533C452.321,148.887,448.5,145.067,443.788,145.067z"/></g><g transform="matrix(0.06400676816701889 0 0 0.06400676816701889 22.629768003266918 -14.385732650756836)" id="L1_8"><path d="M350.688,496.97H66.121V126.245c0-4.151-3.365-7.515-7.515-7.515c-4.15,0-7.515,3.364-7.515,7.515v373.23    c0,6.907,5.619,12.525,12.525,12.525h287.072c4.15,0,7.514-3.364,7.515-7.515C358.203,500.334,354.838,496.97,350.688,496.97z"/><path d="M458.782,67.951L394.906,2.276C393.491,0.821,391.548,0,389.519,0H63.616C56.71,0,51.092,5.62,51.091,12.526v58.613    c0,4.151,3.365,7.515,7.515,7.515c4.15,0,7.515-3.364,7.515-7.515V15.031h320.224l59.536,61.212V496.97h-42.59    c-4.15,0-7.515,3.364-7.515,7.515s3.365,7.515,7.515,7.515h45.094c6.907,0,12.525-5.618,12.525-12.524V73.19    C460.91,71.233,460.147,69.354,458.782,67.951z"/><path d="M458.781,67.951L394.905,2.276c-2.133-2.192-5.381-2.874-8.214-1.723s-4.687,3.904-4.687,6.963V73.19    c0,4.151,3.365,7.515,7.515,7.515h63.876c3.021,0,5.748-1.808,6.922-4.591C461.492,73.332,460.887,70.115,458.781,67.951z     M397.034,65.675V26.019l38.569,39.656H397.034z"/><path d="M290.78,39.899H109.714c-6.907,0-12.525,5.619-12.525,12.525v41.533c0,6.907,5.619,12.525,12.525,12.525H290.78    c6.906,0,12.525-5.619,12.525-12.524V52.423C303.305,45.516,297.686,39.899,290.78,39.899z M288.275,91.451H112.219V54.928    h176.056V91.451z"/><path d="M172.247,145.811c-3.303-2.509-8.018-1.869-10.53,1.436l-33.203,43.688l-9.972-8.726    c-3.123-2.734-7.87-2.417-10.604,0.707c-2.733,3.124-2.416,7.871,0.707,10.604l16.031,14.027c1.376,1.203,3.137,1.859,4.948,1.859    c0.252,0,0.505-0.013,0.759-0.037c2.072-0.211,3.965-1.271,5.225-2.93l38.075-50.098    C176.194,153.037,175.551,148.322,172.247,145.811z"/><path d="M398.409,144.277H209.136c-4.15,0-7.515,3.364-7.515,7.515s3.365,7.515,7.515,7.515h189.273    c4.15,0,7.515-3.364,7.515-7.515S402.559,144.277,398.409,144.277z"/><path d="M332.021,169.326H209.136c-4.15,0-7.515,3.364-7.515,7.515s3.365,7.515,7.515,7.515h122.885    c4.15,0,7.515-3.364,7.515-7.515S336.171,169.326,332.021,169.326z"/><path d="M360.076,194.376h-150.94c-4.15,0-7.515,3.364-7.515,7.515s3.365,7.515,7.515,7.515h150.94    c4.15,0,7.515-3.364,7.515-7.515S364.226,194.376,360.076,194.376z"/><path d="M172.247,248.014c-3.303-2.51-8.018-1.869-10.53,1.436l-33.203,43.688l-9.972-8.726c-3.123-2.733-7.87-2.416-10.604,0.707    c-2.733,3.124-2.416,7.871,0.707,10.604l16.031,14.027c1.376,1.203,3.137,1.859,4.948,1.859c0.252,0,0.505-0.013,0.759-0.037    c2.072-0.211,3.965-1.271,5.225-2.93l38.075-50.098C176.194,255.24,175.551,250.527,172.247,248.014z"/><path d="M398.409,246.481H209.136c-4.15,0-7.515,3.364-7.515,7.515c0,4.151,3.365,7.515,7.515,7.515h189.273    c4.15,0,7.515-3.364,7.515-7.515C405.924,249.845,402.559,246.481,398.409,246.481z"/><path d="M332.021,271.53H209.136c-4.15,0-7.515,3.364-7.515,7.515s3.365,7.515,7.515,7.515h122.885    c4.15,0,7.515-3.364,7.515-7.515S336.171,271.53,332.021,271.53z"/><path d="M360.076,296.579h-150.94c-4.15,0-7.515,3.364-7.515,7.515s3.365,7.515,7.515,7.515h150.94    c4.15,0,7.515-3.364,7.515-7.515S364.226,296.579,360.076,296.579z"/><path d="M398.409,348.685H209.136c-4.15,0-7.515,3.364-7.515,7.515s3.365,7.515,7.515,7.515h189.273    c4.15,0,7.514-3.364,7.515-7.515C405.924,352.049,402.559,348.685,398.409,348.685z"/><path d="M332.021,373.734H209.136c-4.15,0-7.515,3.364-7.515,7.515s3.365,7.515,7.515,7.515h122.885    c4.15,0,7.515-3.364,7.515-7.515S336.171,373.734,332.021,373.734z"/><path d="M360.076,398.783h-150.94c-4.15,0-7.515,3.364-7.515,7.515s3.365,7.515,7.515,7.515h150.94    c4.15,0,7.515-3.364,7.515-7.515S364.226,398.783,360.076,398.783z"/><path d="M158.681,348.685h-40.079c-6.907,0-12.525,5.619-12.525,12.525v40.078c0,6.907,5.619,12.525,12.525,12.525h40.079    c6.907,0,12.525-5.618,12.525-12.524V361.21C171.206,354.303,165.587,348.685,158.681,348.685z M156.177,398.784h-35.069v-35.069    h35.069V398.784z"/></g><g transform="matrix(0.08107738196849823 0 0 0.08107738196849823 277.2847286835313 233.28472868353128)" id="L1_9"><path d="M415.5,216c-4.443,0-8.956,0.332-13.484,0.99c-8.062-30.67-25.807-58.391-50.5-78.662   C324.549,116.191,290.45,104,255.5,104c-49.625,0-95.659,24.094-124.08,64.692c-4.294-0.47-8.162-0.692-11.92-0.692   C53.607,168,0,221.607,0,287.5S53.607,407,119.5,407h296c52.659,0,95.5-42.841,95.5-95.5S468.159,216,415.5,216z M415.5,392h-296   C61.878,392,15,345.122,15,287.5S61.878,183,119.5,183c4.361,0,8.974,0.36,14.516,1.132c2.874,0.398,5.718-0.892,7.308-3.316   C166.697,142.108,209.38,119,255.5,119c31.488,0,62.208,10.982,86.498,30.922c23.963,19.671,40.663,47.115,47.024,77.274   c0.413,1.96,1.593,3.673,3.277,4.757c1.684,1.085,3.733,1.45,5.687,1.017c5.889-1.308,11.782-1.971,17.514-1.971   c44.388,0,80.5,36.112,80.5,80.5S459.888,392,415.5,392z"/><path d="M333.334,164.99c-15-12.883-33.054-21.938-52.209-26.185c-4.045-0.897-8.05,1.655-8.946,5.699   c-0.896,4.044,1.655,8.049,5.699,8.946c33.975,7.532,62.798,32.335,75.223,64.729c1.145,2.984,3.988,4.816,7.004,4.816   c0.893,0,1.801-0.161,2.685-0.5c3.867-1.483,5.8-5.821,4.316-9.688C360.067,194.456,348.389,177.921,333.334,164.99z"/><path d="M415.5,248c-4.142,0-7.5,3.358-7.5,7.5s3.358,7.5,7.5,7.5c16.898,0,32.834,9.031,41.587,23.569   c1.408,2.338,3.889,3.632,6.433,3.632c1.317,0,2.651-0.347,3.861-1.076c3.548-2.137,4.693-6.745,2.557-10.294   C458.487,259.814,437.628,248,415.5,248z"/></g></defs><g fi:class="KUsePattern" opacity="0.2"><pattern id="pattern_L1_1" width="350" height="350" patternUnits="userSpaceOnUse"><use xlink:href="#L1_1" x="-350" y="-350"/><use xlink:href="#L1_1" x="0" y="-350"/><use xlink:href="#L1_1" x="350" y="-350"/><use xlink:href="#L1_1" x="-350" y="0"/><use xlink:href="#L1_1" x="0" y="0"/><use xlink:href="#L1_1" x="350" y="0"/><use xlink:href="#L1_1" x="-350" y="350"/><use xlink:href="#L1_1" x="0" y="350"/><use xlink:href="#L1_1" x="350" y="350"/></pattern><rect x="0" y="0" width="100%" height="100%" fill="url(#pattern_L1_1)"/></g><g fi:class="KUsePattern" opacity="0.2"><pattern id="pattern_L1_2" width="350" height="350" patternUnits="userSpaceOnUse"><use xlink:href="#L1_2" x="-350" y="-350"/><use xlink:href="#L1_2" x="0" y="-350"/><use xlink:href="#L1_2" x="350" y="-350"/><use xlink:href="#L1_2" x="-350" y="0"/><use xlink:href="#L1_2" x="0" y="0"/><use xlink:href="#L1_2" x="350" y="0"/><use xlink:href="#L1_2" x="-350" y="350"/><use xlink:href="#L1_2" x="0" y="350"/><use xlink:href="#L1_2" x="350" y="350"/></pattern><rect x="0" y="0" width="100%" height="100%" fill="url(#pattern_L1_2)"/></g><g fi:class="KUsePattern" opacity="0.2"><pattern id="pattern_L1_3" width="350" height="350" patternUnits="userSpaceOnUse"><use xlink:href="#L1_3" x="-350" y="-350"/><use xlink:href="#L1_3" x="0" y="-350"/><use xlink:href="#L1_3" x="350" y="-350"/><use xlink:href="#L1_3" x="-350" y="0"/><use xlink:href="#L1_3" x="0" y="0"/><use xlink:href="#L1_3" x="350" y="0"/><use xlink:href="#L1_3" x="-350" y="350"/><use xlink:href="#L1_3" x="0" y="350"/><use xlink:href="#L1_3" x="350" y="350"/></pattern><rect x="0" y="0" width="100%" height="100%" fill="url(#pattern_L1_3)"/></g><g fi:class="KUsePattern" opacity="0.2"><pattern id="pattern_L1_4" width="350" height="350" patternUnits="userSpaceOnUse"><use xlink:href="#L1_4" x="-350" y="-350"/><use xlink:href="#L1_4" x="0" y="-350"/><use xlink:href="#L1_4" x="350" y="-350"/><use xlink:href="#L1_4" x="-350" y="0"/><use xlink:href="#L1_4" x="0" y="0"/><use xlink:href="#L1_4" x="350" y="0"/><use xlink:href="#L1_4" x="-350" y="350"/><use xlink:href="#L1_4" x="0" y="350"/><use xlink:href="#L1_4" x="350" y="350"/></pattern><rect x="0" y="0" width="100%" height="100%" fill="url(#pattern_L1_4)"/></g><g fi:class="KUsePattern" opacity="0.2"><pattern id="pattern_L1_6" width="350" height="350" patternUnits="userSpaceOnUse"><use xlink:href="#L1_6" x="-350" y="-350"/><use xlink:href="#L1_6" x="0" y="-350"/><use xlink:href="#L1_6" x="350" y="-350"/><use xlink:href="#L1_6" x="-350" y="0"/><use xlink:href="#L1_6" x="0" y="0"/><use xlink:href="#L1_6" x="350" y="0"/><use xlink:href="#L1_6" x="-350" y="350"/><use xlink:href="#L1_6" x="0" y="350"/><use xlink:href="#L1_6" x="350" y="350"/></pattern><rect x="0" y="0" width="100%" height="100%" fill="url(#pattern_L1_6)"/></g><g fi:class="KUsePattern" opacity="0.2"><pattern id="pattern_L1_7" width="350" height="350" patternUnits="userSpaceOnUse"><use xlink:href="#L1_7" x="-350" y="-350"/><use xlink:href="#L1_7" x="0" y="-350"/><use xlink:href="#L1_7" x="350" y="-350"/><use xlink:href="#L1_7" x="-350" y="0"/><use xlink:href="#L1_7" x="0" y="0"/><use xlink:href="#L1_7" x="350" y="0"/><use xlink:href="#L1_7" x="-350" y="350"/><use xlink:href="#L1_7" x="0" y="350"/><use xlink:href="#L1_7" x="350" y="350"/></pattern><rect x="0" y="0" width="100%" height="100%" fill="url(#pattern_L1_7)"/></g><g fi:class="KUsePattern" opacity="0.21"><pattern id="pattern_L1_8" width="350" height="350" patternUnits="userSpaceOnUse"><use xlink:href="#L1_8" x="-350" y="-350"/><use xlink:href="#L1_8" x="0" y="-350"/><use xlink:href="#L1_8" x="350" y="-350"/><use xlink:href="#L1_8" x="-350" y="0"/><use xlink:href="#L1_8" x="0" y="0"/><use xlink:href="#L1_8" x="350" y="0"/><use xlink:href="#L1_8" x="-350" y="350"/><use xlink:href="#L1_8" x="0" y="350"/><use xlink:href="#L1_8" x="350" y="350"/></pattern><rect x="0" y="0" width="100%" height="100%" fill="url(#pattern_L1_8)"/></g><g fi:class="KUsePattern" opacity="0.2"><pattern id="pattern_L1_9" width="350" height="350" patternUnits="userSpaceOnUse"><use xlink:href="#L1_9" x="-350" y="-350"/><use xlink:href="#L1_9" x="0" y="-350"/><use xlink:href="#L1_9" x="350" y="-350"/><use xlink:href="#L1_9" x="-350" y="0"/><use xlink:href="#L1_9" x="0" y="0"/><use xlink:href="#L1_9" x="350" y="0"/><use xlink:href="#L1_9" x="-350" y="350"/><use xlink:href="#L1_9" x="0" y="350"/><use xlink:href="#L1_9" x="350" y="350"/></pattern><rect x="0" y="0" width="100%" height="100%" fill="url(#pattern_L1_9)"/></g></svg>